<svg xmlns="http://www.w3.org/2000/svg" id="canvas" viewBox="294.204 379.557 1235.249 159.847"><path d="M 321.30,400.37 C 320.53 400.12, 320.01 400.27, 318.91 400.79 C 317.82 401.31, 317.12 401.65, 315.82 402.97 C 314.52 404.30, 313.74 405.30, 312.42 407.42 C 311.10 409.54, 310.46 410.80, 309.21 413.56 C 307.95 416.33, 307.36 417.91, 306.14 421.23 C 304.93 424.54, 304.25 426.38, 303.13 430.15 C 302.01 433.92, 301.45 435.95, 300.56 440.08 C 299.66 444.21, 299.26 446.42, 298.66 450.81 C 298.06 455.20, 297.86 457.52, 297.57 462.03 C 297.28 466.54, 297.23 468.87, 297.21 473.35 C 297.18 477.83, 297.26 480.11, 297.44 484.43 C 297.63 488.74, 297.80 490.92, 298.14 494.92 C 298.48 498.92, 298.72 500.87, 299.14 504.44 C 299.56 508.02, 299.74 509.75, 300.26 512.78 C 300.78 515.81, 301.05 517.23, 301.72 519.58 C 302.39 521.93, 302.86 523.04, 303.60 524.54 C 304.35 526.03, 304.79 526.37, 305.44 527.05 C 306.08 527.73, 306.34 527.85, 306.82 527.93 C 307.31 528.00, 307.61 527.81, 307.87 527.42 C 308.13 527.03, 308.11 526.84, 308.12 525.96 C 308.14 525.09, 308.24 524.60, 307.94 523.05 C 307.64 521.51, 307.22 520.49, 306.64 518.24 C 306.05 516.00, 305.69 514.72, 305.03 511.83 C 304.37 508.95, 303.95 507.29, 303.34 503.83 C 302.73 500.37, 302.44 498.45, 302.00 494.54 C 301.55 490.62, 301.34 488.48, 301.10 484.24 C 300.86 480.01, 300.78 477.76, 300.79 473.37 C 300.80 468.97, 300.85 466.68, 301.16 462.28 C 301.47 457.87, 301.70 455.60, 302.35 451.34 C 303.00 447.08, 303.44 444.95, 304.42 440.98 C 305.41 437.01, 306.02 435.06, 307.28 431.49 C 308.55 427.93, 309.28 426.19, 310.73 423.15 C 312.18 420.12, 313.09 418.77, 314.54 416.33 C 315.98 413.89, 316.72 412.83, 317.95 410.95 C 319.19 409.07, 319.85 408.27, 320.71 406.91 C 321.57 405.55, 321.84 405.13, 322.25 404.15 C 322.66 403.18, 322.95 402.80, 322.76 402.05 C 322.57 401.29, 322.07 400.63, 321.30 400.37" style="stroke: black; fill: black;"/><path d="M 304.66,421.05 C 304.54 421.77, 304.66 422.06, 304.96 422.67 C 305.26 423.28, 305.50 423.56, 306.17 424.09 C 306.85 424.63, 307.33 424.80, 308.32 425.34 C 309.31 425.88, 309.93 426.12, 311.12 426.81 C 312.31 427.50, 312.93 428.04, 314.28 428.79 C 315.62 429.53, 316.57 430.06, 317.86 430.53 C 319.15 431.01, 319.72 431.05, 320.74 431.15 C 321.76 431.26, 322.34 431.40, 322.97 431.07 C 323.60 430.74, 323.91 430.22, 323.89 429.51 C 323.88 428.80, 323.49 428.35, 322.89 427.50 C 322.28 426.66, 321.95 426.15, 320.88 425.27 C 319.81 424.39, 318.86 423.88, 317.54 423.09 C 316.23 422.31, 315.49 422.04, 314.28 421.34 C 313.08 420.64, 312.55 420.18, 311.51 419.59 C 310.47 419.01, 309.98 418.69, 309.09 418.42 C 308.20 418.15, 307.77 418.13, 307.07 418.26 C 306.36 418.38, 306.05 418.50, 305.57 419.06 C 305.08 419.62, 304.78 420.33, 304.66 421.05" style="stroke: black; fill: black;"/><path d="M 390.22,448.16 C 390.52 447.32, 390.29 446.60, 389.85 445.48 C 389.40 444.36, 388.98 443.71, 387.98 442.58 C 386.97 441.44, 386.22 440.77, 384.80 439.79 C 383.39 438.81, 382.59 438.39, 380.89 437.67 C 379.18 436.95, 378.30 436.54, 376.28 436.17 C 374.26 435.80, 373.12 435.63, 370.81 435.82 C 368.50 436.00, 367.23 436.22, 364.72 437.09 C 362.22 437.97, 360.82 438.50, 358.28 440.18 C 355.75 441.85, 354.48 443.00, 352.05 445.46 C 349.61 447.93, 348.35 449.35, 346.10 452.50 C 343.85 455.64, 342.71 457.44, 340.81 461.17 C 338.91 464.90, 337.99 467.01, 336.60 471.14 C 335.22 475.26, 334.61 477.51, 333.88 481.79 C 333.16 486.07, 332.93 488.35, 332.97 492.52 C 333.02 496.68, 333.24 498.84, 334.12 502.62 C 334.99 506.39, 335.65 508.26, 337.35 511.41 C 339.04 514.55, 340.13 516.06, 342.60 518.35 C 345.07 520.63, 346.63 521.64, 349.70 522.83 C 352.77 524.02, 354.59 524.32, 357.95 524.30 C 361.31 524.28, 363.14 523.89, 366.51 522.72 C 369.87 521.56, 371.62 520.63, 374.77 518.48 C 377.92 516.32, 379.49 514.91, 382.26 511.94 C 385.04 508.98, 386.36 507.22, 388.65 503.67 C 390.94 500.12, 391.98 498.10, 393.71 494.19 C 395.44 490.28, 396.16 488.16, 397.31 484.13 C 398.46 480.10, 398.86 477.98, 399.45 474.04 C 400.04 470.10, 400.17 468.10, 400.25 464.43 C 400.34 460.76, 400.26 458.94, 399.86 455.69 C 399.46 452.44, 399.14 450.86, 398.25 448.18 C 397.36 445.50, 396.69 444.24, 395.40 442.27 C 394.12 440.31, 393.15 439.47, 391.81 438.35 C 390.46 437.24, 389.74 437.03, 388.68 436.69 C 387.63 436.35, 387.09 436.41, 386.52 436.67 C 385.96 436.93, 385.81 437.42, 385.85 437.99 C 385.89 438.56, 386.21 438.76, 386.72 439.51 C 387.24 440.27, 387.54 440.68, 388.43 441.77 C 389.32 442.86, 390.18 443.36, 391.17 444.97 C 392.17 446.58, 392.61 447.54, 393.40 449.83 C 394.20 452.11, 394.64 453.47, 395.16 456.38 C 395.67 459.30, 395.90 461.00, 395.96 464.42 C 396.03 467.84, 395.95 469.76, 395.48 473.49 C 395.00 477.22, 394.64 479.25, 393.58 483.08 C 392.52 486.90, 391.82 488.93, 390.17 492.62 C 388.52 496.30, 387.51 498.20, 385.33 501.49 C 383.14 504.78, 381.85 506.39, 379.24 509.05 C 376.64 511.70, 375.14 512.92, 372.30 514.76 C 369.45 516.59, 367.87 517.30, 365.00 518.22 C 362.13 519.14, 360.64 519.37, 357.93 519.37 C 355.22 519.38, 353.89 519.14, 351.45 518.23 C 349.02 517.33, 347.81 516.64, 345.75 514.85 C 343.70 513.06, 342.71 511.91, 341.18 509.27 C 339.65 506.63, 338.97 505.01, 338.10 501.65 C 337.24 498.28, 336.96 496.30, 336.87 492.45 C 336.78 488.61, 336.96 486.44, 337.64 482.43 C 338.32 478.42, 338.92 476.27, 340.28 472.40 C 341.64 468.53, 342.56 466.53, 344.45 463.09 C 346.33 459.65, 347.49 457.99, 349.70 455.21 C 351.92 452.43, 353.19 451.20, 355.53 449.19 C 357.87 447.18, 359.18 446.48, 361.41 445.16 C 363.64 443.84, 364.70 443.31, 366.68 442.58 C 368.66 441.85, 369.60 441.70, 371.33 441.52 C 373.05 441.34, 373.86 441.43, 375.31 441.67 C 376.75 441.91, 377.40 442.13, 378.55 442.73 C 379.70 443.32, 380.09 443.78, 381.06 444.64 C 382.03 445.51, 382.47 446.19, 383.42 447.05 C 384.38 447.91, 384.86 448.42, 385.85 448.95 C 386.83 449.48, 387.47 449.88, 388.34 449.72 C 389.22 449.56, 389.92 449.01, 390.22 448.16" style="stroke: black; fill: black;"/><path d="M 399.12,460.43 C 398.37 460.85, 398.05 461.40, 397.53 462.75 C 397.01 464.10, 396.75 465.03, 396.52 467.18 C 396.29 469.32, 396.29 470.75, 396.38 473.48 C 396.47 476.20, 396.72 477.73, 396.96 480.79 C 397.20 483.85, 397.30 485.53, 397.58 488.78 C 397.85 492.04, 397.96 493.79, 398.32 497.05 C 398.69 500.32, 398.84 502.05, 399.42 505.10 C 400.01 508.14, 400.33 509.70, 401.25 512.30 C 402.17 514.89, 402.75 516.12, 404.02 518.06 C 405.30 520.00, 406.01 520.87, 407.62 522.00 C 409.23 523.13, 410.22 523.55, 412.08 523.72 C 413.94 523.89, 415.03 523.71, 416.93 522.84 C 418.83 521.97, 419.84 521.25, 421.59 519.38 C 423.33 517.51, 424.17 516.24, 425.64 513.50 C 427.10 510.76, 427.62 509.00, 428.92 505.67 C 430.21 502.34, 430.87 500.48, 432.10 496.85 C 433.33 493.23, 433.96 491.25, 435.08 487.55 C 436.21 483.85, 436.75 481.87, 437.72 478.36 C 438.68 474.84, 439.19 473.04, 439.93 469.98 C 440.67 466.91, 441.19 465.43, 441.41 463.03 C 441.63 460.64, 441.33 459.30, 441.02 458.01 C 440.72 456.72, 440.29 456.87, 439.90 456.58 C 439.52 456.29, 439.50 456.35, 439.10 456.56 C 438.70 456.78, 438.50 456.53, 437.92 457.65 C 437.34 458.77, 436.76 459.90, 436.20 462.15 C 435.63 464.41, 435.65 465.93, 435.10 468.95 C 434.54 471.96, 434.24 473.78, 433.41 477.25 C 432.58 480.72, 432.06 482.67, 430.94 486.28 C 429.83 489.90, 429.18 491.84, 427.84 495.31 C 426.51 498.78, 425.76 500.60, 424.27 503.65 C 422.79 506.69, 421.85 508.15, 420.41 510.53 C 418.97 512.91, 418.26 513.94, 417.06 515.54 C 415.86 517.14, 415.35 517.72, 414.40 518.53 C 413.46 519.33, 413.13 519.54, 412.33 519.55 C 411.52 519.56, 411.18 519.37, 410.37 518.57 C 409.57 517.77, 409.11 517.14, 408.31 515.54 C 407.50 513.94, 407.07 512.86, 406.33 510.57 C 405.59 508.27, 405.19 506.88, 404.60 504.06 C 404.01 501.24, 403.75 499.59, 403.38 496.47 C 403.02 493.35, 402.91 491.62, 402.78 488.45 C 402.64 485.28, 402.65 483.62, 402.71 480.62 C 402.76 477.62, 402.98 476.11, 403.05 473.45 C 403.12 470.79, 403.17 469.41, 403.04 467.34 C 402.91 465.26, 402.77 464.40, 402.42 463.06 C 402.07 461.73, 401.96 461.17, 401.30 460.65 C 400.64 460.12, 399.88 460.01, 399.12 460.43" style="stroke: black; fill: black;"/><path d="M 445.70,468.86 C 444.95 469.39, 444.69 470.11, 444.23 471.57 C 443.76 473.04, 443.59 474.01, 443.38 476.17 C 443.16 478.34, 443.17 479.74, 443.16 482.39 C 443.14 485.05, 443.24 486.52, 443.28 489.47 C 443.33 492.41, 443.35 494.04, 443.38 497.13 C 443.41 500.21, 443.35 501.90, 443.45 504.91 C 443.55 507.92, 443.57 509.51, 443.89 512.18 C 444.21 514.84, 444.46 516.20, 445.04 518.22 C 445.61 520.24, 446.07 521.10, 446.79 522.28 C 447.51 523.46, 448.00 523.71, 448.65 524.14 C 449.31 524.56, 449.64 524.51, 450.06 524.41 C 450.48 524.31, 450.58 523.95, 450.73 523.62 C 450.88 523.29, 450.80 523.33, 450.81 522.76 C 450.83 522.18, 450.97 521.88, 450.81 520.75 C 450.66 519.62, 450.31 518.94, 450.04 517.11 C 449.76 515.28, 449.66 514.09, 449.44 511.61 C 449.23 509.12, 449.10 507.60, 448.98 504.70 C 448.86 501.81, 448.82 500.15, 448.85 497.13 C 448.89 494.11, 449.00 492.50, 449.17 489.59 C 449.34 486.68, 449.57 485.23, 449.70 482.58 C 449.83 479.93, 449.92 478.53, 449.83 476.36 C 449.74 474.19, 449.62 473.21, 449.25 471.73 C 448.88 470.25, 448.68 469.52, 447.97 468.94 C 447.26 468.37, 446.45 468.33, 445.70 468.86" style="stroke: black; fill: black;"/><path d="M 448.46,438.05 C 448.98 438.53, 449.16 438.28, 448.77 438.58 C 448.38 438.87, 446.98 439.48, 446.51 439.53 C 446.03 439.57, 445.85 439.60, 446.39 438.79 C 446.93 437.98, 448.77 436.39, 449.22 435.49 C 449.66 434.60, 449.22 434.34, 448.59 434.32 C 447.97 434.31, 446.57 435.03, 446.08 435.40 C 445.60 435.77, 445.70 435.66, 446.18 436.19 C 446.66 436.72, 447.94 437.57, 448.46 438.05" style="stroke: black; fill: black;"/><path d="M 464.65,482.33 C 465.07 483.06, 465.63 483.43, 466.83 483.71 C 468.04 483.99, 468.93 484.08, 470.66 483.71 C 472.39 483.35, 473.54 482.93, 475.48 481.87 C 477.43 480.80, 478.46 479.96, 480.38 478.39 C 482.29 476.83, 483.28 475.90, 485.05 474.05 C 486.83 472.20, 487.75 471.18, 489.25 469.16 C 490.76 467.14, 491.50 466.03, 492.56 463.95 C 493.63 461.87, 494.11 460.79, 494.59 458.78 C 495.07 456.77, 495.22 455.70, 494.97 453.90 C 494.73 452.09, 494.40 451.10, 493.35 449.75 C 492.30 448.39, 491.45 447.70, 489.72 447.12 C 487.98 446.54, 486.81 446.42, 484.68 446.84 C 482.56 447.27, 481.31 447.77, 479.09 449.23 C 476.87 450.69, 475.68 451.78, 473.59 454.15 C 471.49 456.52, 470.48 458.06, 468.62 461.10 C 466.76 464.14, 465.78 465.87, 464.27 469.34 C 462.76 472.80, 462.04 474.73, 461.08 478.40 C 460.12 482.07, 459.73 484.04, 459.48 487.68 C 459.22 491.32, 459.24 493.23, 459.80 496.62 C 460.36 500.00, 460.84 501.76, 462.27 504.62 C 463.69 507.48, 464.71 508.83, 466.93 510.91 C 469.15 512.99, 470.56 513.89, 473.36 515.01 C 476.16 516.12, 477.82 516.45, 480.92 516.47 C 484.02 516.49, 485.74 516.16, 488.87 515.10 C 492.00 514.03, 493.63 513.15, 496.56 511.16 C 499.49 509.17, 500.93 507.86, 503.53 505.17 C 506.14 502.47, 507.38 500.87, 509.58 497.68 C 511.77 494.49, 512.75 492.65, 514.50 489.22 C 516.25 485.79, 517.00 483.92, 518.31 480.53 C 519.63 477.14, 520.23 475.37, 521.08 472.28 C 521.93 469.18, 522.48 467.39, 522.56 465.04 C 522.65 462.69, 522.23 461.50, 521.49 460.55 C 520.74 459.59, 519.88 459.52, 518.85 460.26 C 517.82 461.00, 516.99 461.95, 516.36 464.25 C 515.73 466.56, 515.81 468.44, 515.72 471.80 C 515.63 475.15, 515.93 477.30, 515.90 481.02 C 515.87 484.74, 515.74 486.80, 515.57 490.39 C 515.40 493.98, 515.08 495.99, 515.07 498.97 C 515.05 501.96, 515.07 503.42, 515.49 505.33 C 515.91 507.24, 516.32 507.94, 517.18 508.53 C 518.04 509.12, 518.84 509.11, 519.77 508.28 C 520.70 507.45, 521.33 506.48, 521.81 504.39 C 522.29 502.29, 522.21 500.73, 522.16 497.81 C 522.10 494.89, 521.63 493.10, 521.54 489.77 C 521.44 486.45, 521.52 484.60, 521.68 481.21 C 521.85 477.81, 522.00 475.99, 522.37 472.79 C 522.74 469.58, 523.07 467.95, 523.53 465.18 C 524.00 462.41, 524.20 461.08, 524.70 458.96 C 525.21 456.83, 525.52 455.93, 526.05 454.54 C 526.59 453.14, 526.87 452.55, 527.36 451.99 C 527.85 451.42, 527.95 451.45, 528.53 451.71 C 529.11 451.97, 529.44 452.57, 530.26 453.29 C 531.08 454.01, 531.66 454.67, 532.63 455.30 C 533.61 455.94, 534.18 456.15, 535.14 456.47 C 536.09 456.79, 536.68 457.09, 537.41 456.90 C 538.15 456.72, 538.63 456.30, 538.81 455.55 C 538.99 454.79, 538.77 454.17, 538.33 453.14 C 537.88 452.11, 537.63 451.42, 536.58 450.42 C 535.53 449.42, 534.65 448.72, 533.08 448.13 C 531.51 447.54, 530.37 447.31, 528.72 447.47 C 527.06 447.63, 526.18 447.93, 524.80 448.93 C 523.43 449.93, 522.85 450.73, 521.85 452.47 C 520.84 454.21, 520.48 455.25, 519.77 457.62 C 519.06 459.99, 518.75 461.40, 518.29 464.33 C 517.83 467.26, 517.78 468.97, 517.48 472.28 C 517.17 475.59, 517.06 477.43, 516.77 480.89 C 516.49 484.34, 516.41 486.21, 516.07 489.57 C 515.72 492.93, 515.22 494.74, 515.05 497.67 C 514.88 500.61, 514.84 502.17, 515.22 504.23 C 515.60 506.30, 516.20 507.19, 516.96 507.99 C 517.72 508.78, 518.35 508.78, 519.00 508.21 C 519.66 507.65, 519.94 507.00, 520.22 505.16 C 520.51 503.32, 520.40 501.93, 520.43 499.01 C 520.45 496.10, 520.25 494.12, 520.36 490.57 C 520.46 487.03, 520.59 484.96, 520.95 481.29 C 521.31 477.62, 521.78 475.52, 522.14 472.24 C 522.51 468.96, 522.93 467.20, 522.76 464.89 C 522.59 462.58, 522.04 461.59, 521.31 460.70 C 520.57 459.81, 519.90 459.73, 519.08 460.44 C 518.26 461.15, 517.81 462.12, 517.23 464.24 C 516.64 466.37, 516.78 468.12, 516.15 471.07 C 515.53 474.02, 515.21 475.76, 514.11 479.00 C 513.00 482.23, 512.26 484.03, 510.64 487.27 C 509.01 490.51, 508.06 492.25, 505.99 495.18 C 503.92 498.12, 502.70 499.57, 500.28 501.94 C 497.86 504.32, 496.48 505.43, 493.88 507.06 C 491.27 508.70, 489.84 509.32, 487.25 510.12 C 484.66 510.92, 483.33 511.07, 480.93 511.07 C 478.53 511.08, 477.34 510.94, 475.23 510.16 C 473.13 509.38, 472.12 508.73, 470.42 507.16 C 468.73 505.59, 467.96 504.60, 466.77 502.32 C 465.58 500.05, 465.02 498.66, 464.46 495.79 C 463.91 492.92, 463.80 491.22, 463.99 487.97 C 464.18 484.72, 464.50 482.89, 465.40 479.55 C 466.31 476.21, 467.01 474.39, 468.50 471.27 C 470.00 468.14, 471.00 466.54, 472.89 463.94 C 474.78 461.33, 476.02 460.18, 477.96 458.25 C 479.90 456.32, 480.94 455.51, 482.59 454.29 C 484.24 453.08, 485.00 452.71, 486.21 452.18 C 487.41 451.65, 487.87 451.63, 488.61 451.65 C 489.35 451.68, 489.57 451.79, 489.91 452.31 C 490.24 452.82, 490.34 453.21, 490.28 454.21 C 490.22 455.22, 490.13 455.92, 489.62 457.33 C 489.10 458.75, 488.71 459.63, 487.72 461.28 C 486.73 462.93, 486.06 463.90, 484.67 465.60 C 483.28 467.30, 482.42 468.21, 480.78 469.77 C 479.14 471.33, 478.16 472.14, 476.47 473.41 C 474.77 474.68, 473.83 475.25, 472.30 476.12 C 470.76 476.98, 469.96 477.19, 468.78 477.74 C 467.60 478.28, 467.19 478.38, 466.39 478.85 C 465.58 479.31, 465.11 479.35, 464.76 480.05 C 464.42 480.74, 464.24 481.59, 464.65 482.33" style="stroke: black; fill: black;"/><path d="M 546.94,484.68 C 547.49 485.27, 547.99 485.43, 549.13 485.48 C 550.27 485.54, 551.07 485.50, 552.65 484.95 C 554.23 484.39, 555.24 483.87, 557.05 482.70 C 558.87 481.52, 559.85 480.69, 561.71 479.09 C 563.58 477.48, 564.56 476.53, 566.37 474.66 C 568.18 472.78, 569.14 471.76, 570.75 469.72 C 572.36 467.67, 573.16 466.54, 574.43 464.43 C 575.69 462.32, 576.29 461.23, 577.06 459.17 C 577.84 457.11, 578.17 456.04, 578.29 454.14 C 578.42 452.25, 578.34 451.24, 577.67 449.68 C 577.01 448.13, 576.42 447.29, 574.98 446.37 C 573.54 445.44, 572.48 445.03, 570.49 445.06 C 568.51 445.08, 567.27 445.38, 565.06 446.48 C 562.84 447.57, 561.56 448.43, 559.41 450.53 C 557.26 452.64, 556.25 454.12, 554.29 457.00 C 552.34 459.88, 551.31 461.57, 549.65 464.93 C 547.99 468.28, 547.17 470.18, 546.01 473.77 C 544.84 477.35, 544.32 479.28, 543.84 482.86 C 543.35 486.44, 543.23 488.33, 543.57 491.67 C 543.91 495.02, 544.26 496.76, 545.53 499.60 C 546.81 502.43, 547.80 503.75, 549.93 505.85 C 552.07 507.95, 553.45 508.93, 556.23 510.09 C 559.01 511.24, 560.97 511.51, 563.84 511.62 C 566.72 511.73, 568.38 511.33, 570.61 510.62 C 572.84 509.91, 574.22 509.01, 574.99 508.08 C 575.76 507.15, 575.48 506.44, 574.46 505.97 C 573.43 505.49, 571.92 505.74, 569.85 505.70 C 567.78 505.66, 566.46 505.89, 564.12 505.76 C 561.78 505.62, 560.28 505.73, 558.15 505.02 C 556.02 504.31, 555.04 503.72, 553.45 502.21 C 551.86 500.71, 551.21 499.71, 550.19 497.49 C 549.18 495.27, 548.73 493.94, 548.37 491.13 C 548.01 488.32, 548.00 486.64, 548.39 483.45 C 548.78 480.26, 549.23 478.46, 550.33 475.20 C 551.43 471.93, 552.24 470.14, 553.89 467.14 C 555.54 464.14, 556.62 462.60, 558.59 460.20 C 560.57 457.81, 561.87 456.86, 563.76 455.16 C 565.65 453.47, 566.57 452.74, 568.05 451.74 C 569.52 450.75, 570.16 450.51, 571.13 450.17 C 572.09 449.82, 572.38 449.85, 572.88 450.03 C 573.38 450.21, 573.51 450.39, 573.62 451.08 C 573.73 451.77, 573.74 452.28, 573.44 453.49 C 573.14 454.69, 572.89 455.51, 572.13 457.10 C 571.38 458.69, 570.84 459.65, 569.66 461.44 C 568.48 463.22, 567.74 464.23, 566.22 466.02 C 564.71 467.81, 563.79 468.73, 562.09 470.37 C 560.38 472.00, 559.41 472.85, 557.68 474.20 C 555.96 475.55, 555.02 476.13, 553.47 477.12 C 551.91 478.12, 551.10 478.43, 549.92 479.17 C 548.74 479.92, 548.29 480.19, 547.58 480.86 C 546.87 481.54, 546.51 481.78, 546.39 482.54 C 546.26 483.31, 546.39 484.09, 546.94 484.68" style="stroke: black; fill: black;"/><path d="M 617.45,450.05 C 617.44 449.20, 617.10 448.59, 616.20 447.87 C 615.29 447.15, 614.53 446.73, 612.93 446.46 C 611.33 446.19, 610.16 446.13, 608.18 446.53 C 606.21 446.93, 605.07 447.45, 603.04 448.46 C 601.01 449.48, 599.92 450.16, 598.03 451.61 C 596.14 453.05, 595.11 453.90, 593.58 455.70 C 592.05 457.50, 591.28 458.55, 590.38 460.61 C 589.49 462.67, 589.15 463.82, 589.10 465.99 C 589.06 468.15, 589.28 469.33, 590.16 471.43 C 591.04 473.53, 591.79 474.57, 593.50 476.48 C 595.21 478.38, 596.37 479.29, 598.72 480.95 C 601.07 482.61, 602.60 483.27, 605.26 484.78 C 607.93 486.28, 609.46 487.00, 612.06 488.48 C 614.67 489.95, 616.03 490.77, 618.29 492.16 C 620.55 493.55, 621.71 494.22, 623.35 495.43 C 625.00 496.64, 625.69 497.22, 626.52 498.22 C 627.36 499.22, 627.55 499.61, 627.52 500.42 C 627.49 501.24, 627.24 501.52, 626.37 502.30 C 625.50 503.07, 624.81 503.45, 623.18 504.31 C 621.55 505.18, 620.46 505.72, 618.23 506.63 C 616.00 507.53, 614.62 508.08, 612.02 508.86 C 609.43 509.64, 607.92 510.00, 605.26 510.53 C 602.61 511.06, 601.16 511.27, 598.76 511.52 C 596.37 511.77, 595.20 511.72, 593.29 511.76 C 591.38 511.81, 590.54 511.68, 589.20 511.74 C 587.86 511.80, 587.22 511.68, 586.59 512.06 C 585.97 512.45, 585.72 512.95, 586.07 513.65 C 586.42 514.35, 586.96 514.90, 588.33 515.58 C 589.71 516.25, 590.77 516.72, 592.94 517.04 C 595.11 517.35, 596.51 517.29, 599.19 517.15 C 601.86 517.01, 603.42 516.83, 606.32 516.35 C 609.23 515.87, 610.83 515.54, 613.70 514.76 C 616.57 513.99, 618.14 513.58, 620.68 512.49 C 623.23 511.39, 624.53 510.75, 626.44 509.29 C 628.36 507.83, 629.23 506.97, 630.26 505.21 C 631.29 503.44, 631.59 502.37, 631.60 500.48 C 631.61 498.60, 631.29 497.59, 630.31 495.78 C 629.33 493.97, 628.51 493.12, 626.71 491.43 C 624.92 489.75, 623.72 488.93, 621.34 487.37 C 618.96 485.81, 617.44 485.16, 614.81 483.65 C 612.18 482.14, 610.70 481.37, 608.19 479.82 C 605.68 478.27, 604.38 477.39, 602.26 475.91 C 600.14 474.43, 599.08 473.77, 597.58 472.43 C 596.09 471.09, 595.49 470.48, 594.76 469.23 C 594.04 467.97, 593.89 467.40, 593.96 466.15 C 594.03 464.90, 594.33 464.27, 595.11 462.97 C 595.89 461.67, 596.55 460.93, 597.86 459.65 C 599.17 458.37, 600.07 457.67, 601.66 456.57 C 603.26 455.47, 604.25 454.90, 605.83 454.14 C 607.41 453.38, 608.22 453.09, 609.54 452.78 C 610.86 452.46, 611.45 452.61, 612.44 452.55 C 613.43 452.49, 613.71 452.58, 614.48 452.48 C 615.24 452.39, 615.67 452.57, 616.26 452.08 C 616.86 451.59, 617.46 450.89, 617.45 450.05" style="stroke: black; fill: black;"/><path d="M 734.69,445.36 C 734.61 444.51, 734.22 443.94, 733.27 443.21 C 732.31 442.47, 731.58 442.06, 729.93 441.71 C 728.29 441.36, 727.15 441.24, 725.06 441.44 C 722.97 441.64, 721.80 441.96, 719.49 442.70 C 717.17 443.44, 715.88 443.95, 713.50 445.14 C 711.12 446.33, 709.80 447.07, 707.59 448.64 C 705.37 450.21, 704.19 451.12, 702.42 453.00 C 700.66 454.88, 699.79 455.93, 698.76 458.02 C 697.73 460.11, 697.35 461.26, 697.28 463.44 C 697.20 465.63, 697.42 466.81, 698.37 468.93 C 699.32 471.05, 700.12 472.15, 702.02 474.04 C 703.92 475.93, 705.25 476.78, 707.88 478.39 C 710.50 480.00, 712.17 480.59, 715.14 482.10 C 718.11 483.60, 719.80 484.34, 722.72 485.90 C 725.65 487.46, 727.23 488.30, 729.79 489.90 C 732.35 491.49, 733.59 492.37, 735.52 493.87 C 737.45 495.37, 738.33 496.06, 739.43 497.37 C 740.54 498.69, 740.88 499.28, 741.05 500.44 C 741.22 501.61, 741.04 502.09, 740.29 503.19 C 739.54 504.29, 738.89 504.85, 737.29 505.95 C 735.70 507.06, 734.61 507.60, 732.31 508.73 C 730.01 509.86, 728.59 510.64, 725.79 511.59 C 722.99 512.55, 721.30 512.97, 718.32 513.52 C 715.35 514.06, 713.70 514.18, 710.92 514.32 C 708.14 514.46, 706.72 514.41, 704.42 514.21 C 702.12 514.02, 701.05 513.80, 699.42 513.34 C 697.79 512.87, 697.34 512.63, 696.26 511.90 C 695.17 511.16, 694.84 509.89, 694.00 509.66 C 693.16 509.43, 692.19 509.69, 692.05 510.74 C 691.92 511.79, 692.20 513.46, 693.33 514.89 C 694.47 516.32, 695.62 516.98, 697.72 517.91 C 699.82 518.83, 701.13 519.15, 703.82 519.51 C 706.52 519.88, 708.11 519.88, 711.19 519.73 C 714.28 519.58, 716.00 519.30, 719.25 518.75 C 722.50 518.19, 724.29 517.83, 727.45 516.94 C 730.60 516.05, 732.34 515.62, 735.04 514.30 C 737.73 512.98, 739.02 512.12, 740.92 510.34 C 742.82 508.55, 743.66 507.45, 744.54 505.37 C 745.42 503.28, 745.57 502.05, 745.32 499.90 C 745.07 497.75, 744.58 496.64, 743.29 494.61 C 742.00 492.58, 741.03 491.56, 738.86 489.74 C 736.70 487.92, 735.23 487.16, 732.47 485.51 C 729.72 483.85, 728.07 483.09, 725.11 481.47 C 722.15 479.85, 720.47 479.05, 717.66 477.43 C 714.85 475.81, 713.39 474.91, 711.05 473.38 C 708.70 471.84, 707.58 471.11, 705.93 469.76 C 704.27 468.40, 703.59 467.83, 702.77 466.61 C 701.96 465.39, 701.78 464.87, 701.85 463.65 C 701.93 462.43, 702.25 461.83, 703.16 460.51 C 704.06 459.19, 704.81 458.43, 706.38 457.05 C 707.94 455.67, 709.00 454.90, 710.98 453.63 C 712.95 452.36, 714.15 451.71, 716.23 450.71 C 718.31 449.71, 719.49 449.24, 721.38 448.63 C 723.27 448.03, 724.14 447.87, 725.68 447.70 C 727.22 447.54, 727.90 447.77, 729.08 447.82 C 730.26 447.86, 730.68 447.98, 731.60 447.91 C 732.52 447.84, 733.04 447.98, 733.66 447.47 C 734.28 446.96, 734.77 446.21, 734.69 445.36" style="stroke: black; fill: black;"/><path d="M 752.97,481.69 C 753.65 482.28, 754.38 482.42, 755.82 482.40 C 757.25 482.38, 758.23 482.27, 760.13 481.58 C 762.02 480.89, 763.23 480.25, 765.30 478.97 C 767.38 477.69, 768.43 476.84, 770.49 475.18 C 772.56 473.52, 773.65 472.57, 775.63 470.66 C 777.61 468.75, 778.68 467.72, 780.41 465.65 C 782.15 463.57, 783.00 462.44, 784.31 460.30 C 785.62 458.17, 786.22 457.06, 786.94 454.98 C 787.67 452.89, 787.95 451.80, 787.95 449.88 C 787.95 447.95, 787.76 446.92, 786.93 445.36 C 786.10 443.80, 785.39 442.98, 783.79 442.07 C 782.19 441.17, 781.06 440.82, 778.92 440.84 C 776.79 440.85, 775.50 441.14, 773.12 442.16 C 770.74 443.17, 769.35 443.93, 767.01 445.90 C 764.67 447.87, 763.53 449.30, 761.43 452.03 C 759.34 454.76, 758.27 456.37, 756.53 459.57 C 754.78 462.77, 753.91 464.54, 752.69 468.02 C 751.48 471.50, 750.96 473.41, 750.45 476.98 C 749.94 480.56, 749.83 482.45, 750.16 485.88 C 750.48 489.32, 750.85 491.08, 752.07 494.16 C 753.29 497.24, 754.19 498.79, 756.26 501.28 C 758.33 503.76, 759.68 504.94, 762.44 506.60 C 765.20 508.25, 766.88 508.87, 770.06 509.55 C 773.24 510.24, 775.02 510.32, 778.33 510.01 C 781.64 509.69, 783.43 509.23, 786.63 507.99 C 789.84 506.74, 791.46 505.82, 794.35 503.79 C 797.25 501.75, 798.65 500.48, 801.09 497.83 C 803.54 495.18, 804.65 493.62, 806.57 490.55 C 808.49 487.48, 809.30 485.75, 810.70 482.49 C 812.09 479.23, 812.62 477.48, 813.54 474.24 C 814.46 471.00, 814.81 469.30, 815.29 466.29 C 815.76 463.28, 815.83 461.74, 815.92 459.20 C 816.01 456.66, 816.07 455.44, 815.74 453.58 C 815.42 451.73, 815.12 450.77, 814.29 449.93 C 813.46 449.09, 812.59 448.90, 811.59 449.39 C 810.59 449.88, 809.94 450.63, 809.30 452.37 C 808.66 454.11, 808.43 455.41, 808.39 458.11 C 808.34 460.82, 808.84 462.58, 809.07 465.89 C 809.30 469.19, 809.37 471.12, 809.54 474.62 C 809.70 478.12, 809.76 480.00, 809.88 483.39 C 810.00 486.78, 809.93 488.60, 810.14 491.58 C 810.35 494.55, 810.46 496.06, 810.93 498.27 C 811.40 500.49, 811.67 501.47, 812.48 502.65 C 813.29 503.82, 813.94 504.15, 814.99 504.15 C 816.05 504.15, 816.85 503.78, 817.75 502.64 C 818.65 501.51, 819.04 500.55, 819.49 498.48 C 819.95 496.40, 819.90 495.01, 820.02 492.28 C 820.15 489.56, 819.93 487.94, 820.11 484.86 C 820.30 481.77, 820.48 480.08, 820.96 476.86 C 821.43 473.63, 821.75 471.91, 822.49 468.73 C 823.23 465.56, 823.68 463.93, 824.66 460.99 C 825.65 458.04, 826.25 456.57, 827.42 453.99 C 828.58 451.41, 829.21 450.19, 830.48 448.07 C 831.75 445.94, 832.56 445.02, 833.75 443.36 C 834.94 441.70, 835.60 441.03, 836.43 439.78 C 837.26 438.52, 837.84 437.90, 837.91 437.07 C 837.98 436.25, 837.63 435.74, 836.77 435.68 C 835.90 435.61, 835.02 435.90, 833.59 436.77 C 832.17 437.64, 831.20 438.32, 829.65 440.03 C 828.10 441.74, 827.25 442.95, 825.85 445.33 C 824.45 447.71, 823.82 449.10, 822.65 451.93 C 821.47 454.76, 820.95 456.34, 819.97 459.47 C 818.99 462.61, 818.56 464.30, 817.75 467.61 C 816.95 470.91, 816.62 472.68, 815.97 476.00 C 815.31 479.31, 815.05 481.03, 814.48 484.17 C 813.91 487.31, 813.47 488.94, 813.11 491.67 C 812.75 494.41, 812.62 495.81, 812.69 497.84 C 812.76 499.86, 812.99 500.73, 813.46 501.79 C 813.92 502.85, 814.50 503.15, 815.02 503.13 C 815.55 503.12, 815.86 502.81, 816.07 501.70 C 816.28 500.59, 816.17 499.69, 816.06 497.58 C 815.94 495.47, 815.74 494.03, 815.48 491.15 C 815.23 488.27, 814.96 486.50, 814.78 483.17 C 814.59 479.84, 814.54 477.98, 814.55 474.52 C 814.57 471.06, 814.64 469.13, 814.86 465.88 C 815.08 462.62, 815.60 460.89, 815.65 458.25 C 815.71 455.61, 815.58 454.37, 815.12 452.69 C 814.67 451.01, 814.14 450.31, 813.39 449.86 C 812.63 449.41, 811.90 449.64, 811.35 450.43 C 810.80 451.23, 810.77 452.13, 810.63 453.84 C 810.48 455.55, 810.71 456.64, 810.61 458.99 C 810.50 461.33, 810.44 462.75, 810.09 465.55 C 809.74 468.36, 809.61 469.98, 808.88 473.01 C 808.14 476.04, 807.66 477.68, 806.42 480.70 C 805.18 483.72, 804.42 485.32, 802.67 488.11 C 800.93 490.90, 799.89 492.31, 797.68 494.66 C 795.48 497.00, 794.19 498.10, 791.63 499.84 C 789.07 501.59, 787.62 502.34, 784.88 503.36 C 782.13 504.37, 780.62 504.70, 777.88 504.92 C 775.14 505.14, 773.72 505.03, 771.16 504.47 C 768.60 503.91, 767.31 503.42, 765.10 502.12 C 762.90 500.82, 761.85 499.94, 760.15 497.98 C 758.46 496.02, 757.68 494.82, 756.62 492.30 C 755.56 489.79, 755.18 488.34, 754.86 485.41 C 754.54 482.47, 754.58 480.79, 755.01 477.62 C 755.45 474.46, 755.90 472.70, 757.05 469.57 C 758.19 466.44, 759.03 464.80, 760.73 461.97 C 762.43 459.15, 763.51 457.69, 765.55 455.45 C 767.59 453.20, 768.90 452.30, 770.93 450.74 C 772.96 449.18, 774.00 448.55, 775.70 447.65 C 777.39 446.75, 778.19 446.54, 779.41 446.25 C 780.64 445.96, 781.09 446.01, 781.82 446.21 C 782.55 446.42, 782.77 446.61, 783.05 447.28 C 783.32 447.96, 783.39 448.43, 783.20 449.59 C 783.01 450.75, 782.81 451.52, 782.11 453.07 C 781.40 454.61, 780.88 455.54, 779.67 457.30 C 778.46 459.06, 777.66 460.05, 776.04 461.86 C 774.42 463.66, 773.42 464.63, 771.57 466.33 C 769.71 468.02, 768.68 468.91, 766.76 470.32 C 764.83 471.73, 763.80 472.30, 761.94 473.37 C 760.09 474.45, 759.02 474.85, 757.49 475.70 C 755.96 476.55, 755.31 476.87, 754.30 477.62 C 753.29 478.37, 752.70 478.65, 752.44 479.46 C 752.17 480.27, 752.29 481.10, 752.97 481.69" style="stroke: black; fill: black;"/><path d="M 909.15,450.60 C 908.55 451.24, 908.57 451.86, 908.29 453.44 C 908.02 455.02, 907.80 456.04, 907.76 458.50 C 907.71 460.97, 908.04 462.60, 908.07 465.75 C 908.09 468.91, 908.11 470.71, 907.90 474.28 C 907.69 477.85, 907.43 479.92, 907.01 483.62 C 906.59 487.31, 906.30 489.35, 905.80 492.77 C 905.29 496.19, 904.76 497.94, 904.48 500.70 C 904.20 503.47, 904.10 504.80, 904.38 506.59 C 904.67 508.39, 905.04 509.11, 905.90 509.66 C 906.76 510.20, 907.59 510.16, 908.68 509.31 C 909.76 508.47, 910.50 507.59, 911.31 505.43 C 912.13 503.27, 912.18 501.64, 912.76 498.51 C 913.35 495.38, 913.42 493.41, 914.25 489.78 C 915.07 486.15, 915.64 484.14, 916.89 480.36 C 918.14 476.58, 918.93 474.56, 920.49 470.90 C 922.06 467.23, 922.95 465.31, 924.73 462.04 C 926.51 458.76, 927.52 457.14, 929.38 454.53 C 931.24 451.92, 932.35 450.83, 934.03 449.01 C 935.70 447.19, 936.47 446.39, 937.75 445.43 C 939.03 444.46, 939.56 444.22, 940.45 444.19 C 941.33 444.15, 941.59 444.36, 942.17 445.26 C 942.75 446.16, 942.90 446.84, 943.35 448.68 C 943.80 450.52, 944.02 451.75, 944.42 454.44 C 944.81 457.13, 945.19 458.80, 945.32 462.13 C 945.46 465.47, 945.37 467.47, 945.10 471.12 C 944.83 474.78, 944.54 476.84, 943.97 480.39 C 943.41 483.94, 942.89 485.84, 942.27 488.87 C 941.66 491.89, 941.12 493.37, 940.92 495.53 C 940.72 497.69, 940.78 498.65, 941.28 499.68 C 941.78 500.71, 942.43 501.00, 943.44 500.69 C 944.45 500.39, 945.29 499.84, 946.32 498.16 C 947.35 496.49, 947.77 495.10, 948.58 492.30 C 949.39 489.49, 949.39 487.55, 950.38 484.14 C 951.36 480.73, 952.06 478.80, 953.51 475.24 C 954.96 471.67, 955.85 469.74, 957.64 466.31 C 959.42 462.87, 960.45 461.10, 962.43 458.07 C 964.40 455.04, 965.55 453.57, 967.52 451.17 C 969.48 448.78, 970.60 447.75, 972.26 446.11 C 973.92 444.47, 974.66 443.79, 975.81 442.98 C 976.95 442.17, 977.35 441.96, 977.98 442.05 C 978.61 442.14, 978.68 442.37, 978.97 443.43 C 979.26 444.50, 979.22 445.29, 979.43 447.39 C 979.63 449.48, 979.87 450.88, 980.00 453.92 C 980.14 456.95, 980.26 458.86, 980.11 462.54 C 979.97 466.22, 979.72 468.38, 979.28 472.32 C 978.85 476.25, 978.50 478.41, 977.94 482.23 C 977.38 486.05, 976.98 488.05, 976.50 491.43 C 976.01 494.81, 975.58 496.45, 975.53 499.11 C 975.47 501.76, 975.60 502.97, 976.23 504.69 C 976.87 506.42, 977.43 507.13, 978.72 507.73 C 980.02 508.32, 981.07 508.37, 982.69 507.66 C 984.32 506.95, 985.35 506.19, 986.85 504.16 C 988.35 502.13, 988.87 500.54, 990.20 497.50 C 991.54 494.47, 992.11 492.57, 993.52 489.00 C 994.94 485.42, 995.75 483.39, 997.27 479.62 C 998.80 475.85, 999.64 473.78, 1001.15 470.15 C 1002.66 466.51, 1003.45 464.64, 1004.84 461.45 C 1006.23 458.27, 1007.10 456.77, 1008.09 454.24 C 1009.09 451.72, 1009.53 450.53, 1009.83 448.85 C 1010.13 447.16, 1010.02 446.35, 1009.58 445.82 C 1009.14 445.28, 1008.40 445.27, 1007.64 446.17 C 1006.88 447.07, 1006.25 448.04, 1005.78 450.31 C 1005.31 452.58, 1005.44 454.22, 1005.28 457.53 C 1005.12 460.85, 1005.17 463.00, 1005.00 466.87 C 1004.82 470.74, 1004.61 472.89, 1004.39 476.88 C 1004.17 480.86, 1004.04 483.00, 1003.91 486.79 C 1003.78 490.58, 1003.64 492.51, 1003.73 495.81 C 1003.82 499.10, 1003.89 500.76, 1004.37 503.27 C 1004.85 505.78, 1005.39 506.84, 1006.14 508.36 C 1006.90 509.87, 1007.42 510.24, 1008.13 510.85 C 1008.85 511.45, 1009.26 511.43, 1009.73 511.38 C 1010.20 511.33, 1010.35 510.98, 1010.49 510.61 C 1010.63 510.23, 1010.48 510.24, 1010.43 509.52 C 1010.38 508.80, 1010.46 508.42, 1010.25 507.00 C 1010.03 505.58, 1009.69 504.69, 1009.34 502.41 C 1008.99 500.12, 1008.72 498.68, 1008.50 495.57 C 1008.28 492.47, 1008.19 490.57, 1008.23 486.89 C 1008.27 483.21, 1008.39 481.08, 1008.70 477.16 C 1009.00 473.25, 1009.22 471.11, 1009.75 467.31 C 1010.29 463.51, 1010.84 461.44, 1011.36 458.15 C 1011.87 454.87, 1012.37 453.30, 1012.32 450.90 C 1012.27 448.50, 1011.89 447.36, 1011.11 446.13 C 1010.33 444.91, 1009.50 444.60, 1008.41 444.79 C 1007.33 444.99, 1006.73 445.62, 1005.70 447.12 C 1004.66 448.62, 1004.24 449.78, 1003.23 452.31 C 1002.22 454.84, 1001.85 456.53, 1000.66 459.78 C 999.47 463.03, 998.74 464.92, 997.27 468.56 C 995.81 472.20, 994.97 474.27, 993.35 477.97 C 991.73 481.67, 990.87 483.68, 989.18 487.06 C 987.49 490.44, 986.46 492.12, 984.91 494.86 C 983.36 497.59, 982.43 498.81, 981.43 500.74 C 980.44 502.68, 980.26 503.51, 979.93 504.52 C 979.60 505.52, 979.76 505.85, 979.80 505.76 C 979.85 505.67, 979.99 505.36, 980.15 504.08 C 980.32 502.79, 980.44 501.77, 980.63 499.35 C 980.83 496.93, 980.81 495.29, 981.12 491.98 C 981.43 488.67, 981.69 486.64, 982.18 482.81 C 982.67 478.98, 983.03 476.83, 983.57 472.85 C 984.12 468.87, 984.46 466.71, 984.90 462.92 C 985.33 459.12, 985.68 457.18, 985.77 453.87 C 985.85 450.56, 985.92 448.92, 985.32 446.36 C 984.72 443.81, 984.10 442.64, 982.77 441.09 C 981.44 439.53, 980.45 438.98, 978.67 438.59 C 976.89 438.20, 975.84 438.36, 973.86 439.13 C 971.88 439.90, 970.80 440.61, 968.79 442.43 C 966.77 444.25, 965.79 445.58, 963.79 448.25 C 961.79 450.92, 960.76 452.55, 958.79 455.77 C 956.82 458.99, 955.79 460.82, 953.92 464.36 C 952.05 467.90, 951.14 469.86, 949.45 473.46 C 947.77 477.06, 947.00 479.00, 945.50 482.34 C 944.00 485.69, 942.91 487.37, 941.94 490.19 C 940.97 493.02, 940.68 494.51, 940.63 496.49 C 940.58 498.47, 941.04 499.36, 941.69 500.10 C 942.34 500.84, 943.04 500.90, 943.89 500.20 C 944.73 499.49, 945.25 498.65, 945.93 496.57 C 946.61 494.49, 946.77 492.89, 947.29 489.79 C 947.81 486.69, 948.04 484.71, 948.53 481.05 C 949.02 477.40, 949.34 475.32, 949.72 471.54 C 950.11 467.75, 950.32 465.72, 950.47 462.14 C 950.62 458.57, 950.82 456.74, 950.47 453.66 C 950.12 450.58, 949.76 449.05, 948.72 446.75 C 947.68 444.44, 946.90 443.40, 945.27 442.12 C 943.63 440.83, 942.52 440.43, 940.55 440.32 C 938.58 440.21, 937.47 440.53, 935.43 441.57 C 933.38 442.62, 932.28 443.45, 930.31 445.54 C 928.34 447.62, 927.44 449.07, 925.59 451.98 C 923.74 454.89, 922.81 456.64, 921.04 460.10 C 919.28 463.56, 918.40 465.53, 916.77 469.30 C 915.14 473.07, 914.34 475.12, 912.91 478.95 C 911.47 482.79, 910.86 484.84, 909.61 488.45 C 908.36 492.06, 907.61 493.92, 906.67 497.00 C 905.72 500.09, 905.13 501.62, 904.88 503.87 C 904.63 506.13, 904.95 507.17, 905.41 508.28 C 905.88 509.38, 906.52 509.65, 907.20 509.38 C 907.89 509.11, 908.29 508.54, 908.83 506.93 C 909.37 505.32, 909.57 504.03, 909.90 501.31 C 910.23 498.59, 910.18 496.78, 910.51 493.34 C 910.83 489.91, 911.09 487.87, 911.54 484.15 C 911.99 480.42, 912.29 478.36, 912.75 474.73 C 913.22 471.11, 913.55 469.28, 913.86 466.01 C 914.17 462.74, 914.44 461.00, 914.30 458.38 C 914.17 455.77, 913.78 454.58, 913.17 452.94 C 912.57 451.31, 912.09 450.67, 911.28 450.20 C 910.48 449.73, 909.75 449.95, 909.15 450.60" style="stroke: black; fill: black;"/><path d="M 1012.92,407.82 C 1013.30 407.42, 1013.19 407.29, 1012.73 407.61 C 1012.28 407.93, 1011.01 409.03, 1010.63 409.43 C 1010.24 409.84, 1010.36 409.97, 1010.81 409.65 C 1011.27 409.33, 1012.54 408.23, 1012.92 407.82" style="stroke: black; fill: black;"/><path d="M 1088.28,451.44 C 1087.87 452.14, 1088.02 452.59, 1088.12 453.97 C 1088.22 455.35, 1088.28 456.22, 1088.79 458.35 C 1089.29 460.48, 1089.83 461.83, 1090.63 464.64 C 1091.43 467.45, 1092.01 469.06, 1092.80 472.39 C 1093.58 475.73, 1093.89 477.66, 1094.54 481.31 C 1095.18 484.96, 1095.48 486.96, 1096.03 490.64 C 1096.59 494.33, 1096.82 496.27, 1097.30 499.73 C 1097.77 503.19, 1097.80 505.04, 1098.39 507.93 C 1098.99 510.82, 1099.36 512.15, 1100.25 514.17 C 1101.15 516.19, 1101.63 517.06, 1102.86 518.04 C 1104.10 519.01, 1104.98 519.29, 1106.44 519.05 C 1107.91 518.81, 1108.80 518.33, 1110.18 516.84 C 1111.56 515.34, 1112.27 514.24, 1113.33 511.56 C 1114.39 508.89, 1114.47 507.02, 1115.47 503.46 C 1116.47 499.90, 1117.06 497.81, 1118.34 493.75 C 1119.61 489.69, 1120.39 487.40, 1121.83 483.16 C 1123.28 478.92, 1124.08 476.64, 1125.55 472.53 C 1127.03 468.42, 1127.79 466.29, 1129.21 462.61 C 1130.64 458.93, 1131.43 457.19, 1132.68 454.12 C 1133.93 451.06, 1134.64 449.62, 1135.47 447.28 C 1136.30 444.94, 1136.54 443.94, 1136.85 442.41 C 1137.16 440.89, 1137.04 440.45, 1137.02 439.67 C 1137.01 438.88, 1137.00 438.82, 1136.78 438.48 C 1136.56 438.15, 1136.35 437.97, 1135.92 438.00 C 1135.50 438.03, 1135.28 438.04, 1134.66 438.63 C 1134.05 439.21, 1133.61 439.54, 1132.84 440.93 C 1132.07 442.32, 1131.69 443.25, 1130.81 445.58 C 1129.94 447.90, 1129.53 449.42, 1128.47 452.56 C 1127.41 455.69, 1126.80 457.52, 1125.51 461.26 C 1124.23 465.01, 1123.49 467.15, 1122.04 471.28 C 1120.58 475.41, 1119.78 477.68, 1118.25 481.90 C 1116.71 486.12, 1115.89 488.40, 1114.37 492.37 C 1112.85 496.34, 1112.11 498.41, 1110.65 501.75 C 1109.20 505.09, 1108.12 506.58, 1107.11 509.08 C 1106.10 511.57, 1105.94 512.73, 1105.60 514.23 C 1105.27 515.73, 1105.47 516.22, 1105.45 516.57 C 1105.43 516.92, 1105.63 516.77, 1105.50 515.99 C 1105.37 515.20, 1105.20 514.48, 1104.81 512.65 C 1104.42 510.82, 1104.15 509.58, 1103.56 506.85 C 1102.97 504.12, 1102.50 502.37, 1101.87 498.99 C 1101.24 495.62, 1100.97 493.66, 1100.41 489.98 C 1099.85 486.30, 1099.57 484.29, 1099.05 480.59 C 1098.53 476.89, 1098.29 474.95, 1097.82 471.48 C 1097.36 468.00, 1097.30 466.21, 1096.74 463.21 C 1096.18 460.20, 1095.84 458.66, 1095.01 456.44 C 1094.18 454.22, 1093.54 453.32, 1092.57 452.12 C 1091.60 450.92, 1091.01 450.57, 1090.15 450.43 C 1089.29 450.30, 1088.68 450.73, 1088.28 451.44" style="stroke: black; fill: black;"/><path d="M 1170.63,461.29 C 1171.48 460.99, 1172.01 460.37, 1172.51 459.26 C 1173.01 458.15, 1173.20 457.27, 1173.12 455.72 C 1173.04 454.16, 1172.85 453.07, 1172.12 451.49 C 1171.39 449.91, 1170.78 449.08, 1169.48 447.83 C 1168.18 446.57, 1167.40 445.94, 1165.63 445.20 C 1163.86 444.46, 1162.80 444.14, 1160.64 444.13 C 1158.47 444.13, 1157.20 444.29, 1154.82 445.16 C 1152.43 446.04, 1151.07 446.69, 1148.71 448.52 C 1146.35 450.35, 1145.19 451.65, 1143.02 454.33 C 1140.84 457.01, 1139.74 458.62, 1137.83 461.91 C 1135.92 465.19, 1134.99 467.11, 1133.49 470.75 C 1131.99 474.39, 1131.30 476.41, 1130.35 480.12 C 1129.40 483.83, 1129.03 485.81, 1128.74 489.29 C 1128.45 492.77, 1128.37 494.57, 1128.91 497.52 C 1129.45 500.47, 1130.06 501.89, 1131.44 504.04 C 1132.81 506.19, 1133.77 507.15, 1135.79 508.27 C 1137.81 509.39, 1139.15 509.74, 1141.54 509.66 C 1143.93 509.58, 1145.35 509.19, 1147.76 507.87 C 1150.17 506.55, 1151.41 505.46, 1153.59 503.07 C 1155.78 500.69, 1156.76 499.08, 1158.68 495.94 C 1160.60 492.80, 1161.52 490.93, 1163.20 487.38 C 1164.88 483.83, 1165.68 481.87, 1167.07 478.20 C 1168.46 474.54, 1169.06 472.54, 1170.14 469.05 C 1171.22 465.56, 1171.83 463.81, 1172.47 460.76 C 1173.12 457.70, 1173.50 455.97, 1173.38 453.79 C 1173.26 451.62, 1172.74 450.58, 1171.87 449.88 C 1171.01 449.18, 1170.10 449.25, 1169.05 450.28 C 1168.01 451.31, 1167.16 452.41, 1166.64 455.04 C 1166.11 457.67, 1166.44 459.69, 1166.41 463.44 C 1166.39 467.18, 1166.47 469.54, 1166.50 473.76 C 1166.54 477.98, 1166.49 480.29, 1166.59 484.54 C 1166.68 488.79, 1166.72 491.02, 1166.98 495.02 C 1167.25 499.02, 1167.36 501.09, 1167.90 504.55 C 1168.43 508.01, 1168.59 509.71, 1169.65 512.32 C 1170.70 514.92, 1171.49 516.21, 1173.17 517.58 C 1174.85 518.94, 1176.21 519.12, 1178.03 519.14 C 1179.86 519.16, 1181.07 518.62, 1182.29 517.69 C 1183.52 516.77, 1184.14 515.52, 1184.15 514.51 C 1184.15 513.50, 1183.21 512.78, 1182.32 512.64 C 1181.43 512.51, 1180.59 513.33, 1179.68 513.84 C 1178.78 514.36, 1178.55 515.04, 1177.80 515.22 C 1177.04 515.40, 1176.61 515.66, 1175.90 514.73 C 1175.20 513.81, 1174.99 512.81, 1174.27 510.61 C 1173.56 508.42, 1172.98 506.95, 1172.33 503.76 C 1171.68 500.58, 1171.37 498.56, 1171.02 494.70 C 1170.67 490.85, 1170.60 488.64, 1170.58 484.48 C 1170.55 480.32, 1170.61 478.03, 1170.90 473.90 C 1171.18 469.76, 1171.55 467.44, 1172.01 463.81 C 1172.47 460.18, 1173.16 458.32, 1173.19 455.75 C 1173.23 453.17, 1172.78 452.07, 1172.18 450.93 C 1171.58 449.79, 1170.95 449.57, 1170.20 450.04 C 1169.45 450.51, 1168.98 451.32, 1168.43 453.27 C 1167.87 455.22, 1167.95 456.86, 1167.43 459.77 C 1166.92 462.69, 1166.74 464.45, 1165.86 467.83 C 1164.98 471.21, 1164.37 473.16, 1163.04 476.68 C 1161.71 480.19, 1160.89 482.10, 1159.19 485.41 C 1157.50 488.72, 1156.50 490.48, 1154.55 493.23 C 1152.60 495.98, 1151.39 497.19, 1149.46 499.17 C 1147.52 501.15, 1146.55 501.96, 1144.88 503.11 C 1143.21 504.25, 1142.50 504.64, 1141.11 504.90 C 1139.72 505.16, 1139.08 505.06, 1137.95 504.42 C 1136.82 503.77, 1136.26 503.23, 1135.46 501.68 C 1134.66 500.12, 1134.36 499.05, 1133.95 496.63 C 1133.54 494.21, 1133.27 492.68, 1133.41 489.59 C 1133.54 486.50, 1133.79 484.61, 1134.62 481.18 C 1135.45 477.75, 1136.11 475.82, 1137.56 472.45 C 1139.00 469.09, 1139.95 467.28, 1141.84 464.36 C 1143.73 461.43, 1144.89 460.02, 1146.99 457.82 C 1149.10 455.62, 1150.35 454.80, 1152.35 453.36 C 1154.35 451.91, 1155.29 451.33, 1156.97 450.59 C 1158.66 449.85, 1159.45 449.76, 1160.78 449.66 C 1162.11 449.56, 1162.67 449.72, 1163.61 450.10 C 1164.56 450.48, 1164.96 450.84, 1165.52 451.55 C 1166.08 452.27, 1166.18 452.72, 1166.42 453.68 C 1166.66 454.64, 1166.58 455.32, 1166.74 456.33 C 1166.91 457.34, 1166.96 457.86, 1167.26 458.74 C 1167.57 459.63, 1167.58 460.25, 1168.25 460.76 C 1168.93 461.27, 1169.78 461.59, 1170.63 461.29" style="stroke: black; fill: black;"/><path d="M 1199.97,402.67 C 1199.31 403.05, 1199.13 403.35, 1198.66 404.56 C 1198.18 405.78, 1197.80 406.55, 1197.58 408.75 C 1197.35 410.95, 1197.51 412.39, 1197.54 415.55 C 1197.56 418.72, 1197.74 420.62, 1197.71 424.56 C 1197.67 428.50, 1197.56 430.74, 1197.37 435.26 C 1197.18 439.79, 1197.02 442.28, 1196.77 447.20 C 1196.52 452.13, 1196.34 454.82, 1196.13 459.91 C 1195.91 465.00, 1195.80 467.70, 1195.70 472.67 C 1195.60 477.64, 1195.59 480.19, 1195.64 484.76 C 1195.68 489.33, 1195.74 491.58, 1195.95 495.52 C 1196.15 499.45, 1196.14 501.33, 1196.68 504.44 C 1197.21 507.55, 1197.58 508.93, 1198.61 511.06 C 1199.63 513.19, 1200.30 514.01, 1201.80 515.08 C 1203.30 516.16, 1204.28 516.47, 1206.11 516.43 C 1207.93 516.39, 1209.04 516.05, 1210.92 514.88 C 1212.81 513.72, 1213.80 512.79, 1215.51 510.61 C 1217.22 508.43, 1217.90 506.92, 1219.47 503.99 C 1221.03 501.05, 1221.80 499.32, 1223.34 495.93 C 1224.88 492.54, 1225.69 490.65, 1227.15 487.02 C 1228.61 483.39, 1229.33 481.44, 1230.62 477.79 C 1231.91 474.14, 1232.55 472.24, 1233.60 468.76 C 1234.66 465.29, 1235.19 463.53, 1235.92 460.40 C 1236.64 457.28, 1236.98 455.77, 1237.22 453.14 C 1237.45 450.50, 1237.44 449.26, 1237.09 447.23 C 1236.74 445.21, 1236.44 444.28, 1235.45 443.02 C 1234.47 441.75, 1233.68 441.19, 1232.16 440.92 C 1230.63 440.65, 1229.53 440.71, 1227.82 441.65 C 1226.12 442.59, 1225.10 443.43, 1223.64 445.60 C 1222.17 447.78, 1221.60 449.36, 1220.49 452.52 C 1219.39 455.67, 1218.94 457.61, 1218.11 461.38 C 1217.28 465.14, 1216.83 467.28, 1216.34 471.34 C 1215.84 475.40, 1215.65 477.62, 1215.64 481.66 C 1215.64 485.71, 1215.76 487.83, 1216.31 491.58 C 1216.87 495.33, 1217.25 497.22, 1218.40 500.43 C 1219.55 503.64, 1220.27 505.23, 1222.07 507.62 C 1223.87 510.02, 1225.08 511.02, 1227.40 512.39 C 1229.71 513.75, 1231.08 514.20, 1233.65 514.46 C 1236.22 514.72, 1237.66 514.56, 1240.26 513.69 C 1242.86 512.83, 1244.31 512.12, 1246.65 510.15 C 1248.99 508.17, 1250.02 506.71, 1251.96 503.82 C 1253.90 500.94, 1254.75 499.17, 1256.33 495.73 C 1257.92 492.28, 1258.63 490.33, 1259.89 486.59 C 1261.16 482.84, 1261.71 480.79, 1262.68 477.01 C 1263.64 473.24, 1264.00 471.23, 1264.72 467.72 C 1265.44 464.21, 1265.87 462.48, 1266.28 459.46 C 1266.70 456.45, 1266.99 454.77, 1266.79 452.66 C 1266.59 450.55, 1266.09 449.57, 1265.27 448.91 C 1264.44 448.25, 1263.60 448.34, 1262.67 449.36 C 1261.73 450.37, 1261.00 451.45, 1260.58 453.99 C 1260.16 456.53, 1260.55 458.46, 1260.56 462.05 C 1260.57 465.65, 1260.71 467.90, 1260.64 471.95 C 1260.56 476.00, 1260.41 478.24, 1260.20 482.28 C 1259.99 486.32, 1259.85 488.48, 1259.58 492.16 C 1259.32 495.84, 1258.93 497.73, 1258.87 500.67 C 1258.81 503.61, 1258.84 504.99, 1259.30 506.85 C 1259.76 508.72, 1260.20 509.43, 1261.17 509.98 C 1262.13 510.54, 1262.98 510.48, 1264.12 509.64 C 1265.26 508.79, 1266.03 507.90, 1266.88 505.76 C 1267.72 503.62, 1267.79 502.00, 1268.34 498.93 C 1268.89 495.86, 1268.91 493.98, 1269.63 490.42 C 1270.35 486.87, 1270.84 484.88, 1271.93 481.16 C 1273.03 477.44, 1273.72 475.43, 1275.11 471.83 C 1276.50 468.22, 1277.29 466.38, 1278.90 463.14 C 1280.50 459.90, 1281.42 458.28, 1283.12 455.64 C 1284.82 452.99, 1285.85 451.84, 1287.40 449.90 C 1288.95 447.97, 1289.68 447.11, 1290.89 445.97 C 1292.10 444.83, 1292.64 444.47, 1293.43 444.19 C 1294.23 443.91, 1294.41 443.93, 1294.88 444.57 C 1295.34 445.21, 1295.41 445.74, 1295.77 447.39 C 1296.13 449.03, 1296.26 450.15, 1296.67 452.78 C 1297.07 455.41, 1297.54 457.08, 1297.80 460.53 C 1298.06 463.99, 1298.05 466.09, 1297.99 470.06 C 1297.92 474.03, 1297.75 476.26, 1297.46 480.38 C 1297.18 484.51, 1296.92 486.75, 1296.56 490.68 C 1296.20 494.62, 1295.93 496.63, 1295.66 500.07 C 1295.40 503.51, 1295.11 505.18, 1295.24 507.88 C 1295.36 510.58, 1295.65 511.85, 1296.30 513.59 C 1296.94 515.33, 1297.55 515.84, 1298.45 516.60 C 1299.35 517.37, 1300.04 517.43, 1300.79 517.40 C 1301.53 517.38, 1302.05 516.95, 1302.16 516.49 C 1302.27 516.03, 1301.57 515.35, 1301.33 515.10 C 1301.09 514.85, 1301.03 515.32, 1300.95 515.23 C 1300.87 515.15, 1301.03 515.21, 1300.92 514.68 C 1300.82 514.15, 1300.54 513.98, 1300.41 512.58 C 1300.29 511.19, 1300.34 510.17, 1300.30 507.71 C 1300.25 505.25, 1300.12 503.63, 1300.19 500.29 C 1300.26 496.95, 1300.39 494.93, 1300.66 491.01 C 1300.93 487.09, 1301.18 484.84, 1301.52 480.69 C 1301.86 476.53, 1302.07 474.29, 1302.35 470.24 C 1302.62 466.19, 1302.77 464.09, 1302.88 460.42 C 1302.98 456.75, 1303.28 454.90, 1302.88 451.89 C 1302.48 448.88, 1301.99 447.47, 1300.88 445.38 C 1299.76 443.29, 1298.95 442.42, 1297.33 441.43 C 1295.71 440.44, 1294.65 440.24, 1292.79 440.42 C 1290.93 440.59, 1289.93 441.05, 1288.05 442.30 C 1286.17 443.54, 1285.18 444.47, 1283.40 446.66 C 1281.61 448.84, 1280.80 450.29, 1279.13 453.22 C 1277.45 456.14, 1276.62 457.87, 1275.04 461.29 C 1273.45 464.71, 1272.67 466.60, 1271.22 470.32 C 1269.77 474.03, 1269.07 476.08, 1267.79 479.85 C 1266.52 483.62, 1265.98 485.64, 1264.84 489.17 C 1263.70 492.69, 1262.96 494.46, 1262.09 497.47 C 1261.22 500.47, 1260.70 502.01, 1260.49 504.20 C 1260.28 506.40, 1260.61 507.41, 1261.03 508.44 C 1261.45 509.46, 1262.04 509.68, 1262.58 509.32 C 1263.11 508.96, 1263.41 508.36, 1263.71 506.65 C 1264.00 504.94, 1264.00 503.63, 1264.05 500.77 C 1264.10 497.91, 1263.89 496.01, 1263.95 492.36 C 1264.02 488.71, 1264.13 486.55, 1264.38 482.52 C 1264.63 478.49, 1264.79 476.24, 1265.18 472.21 C 1265.58 468.18, 1265.96 465.94, 1266.36 462.37 C 1266.76 458.81, 1267.31 456.93, 1267.19 454.39 C 1267.07 451.84, 1266.51 450.75, 1265.77 449.66 C 1265.04 448.57, 1264.32 448.41, 1263.52 448.95 C 1262.72 449.48, 1262.26 450.34, 1261.79 452.32 C 1261.31 454.31, 1261.43 455.93, 1261.14 458.85 C 1260.85 461.77, 1260.84 463.51, 1260.32 466.94 C 1259.80 470.36, 1259.44 472.33, 1258.54 475.97 C 1257.64 479.62, 1257.08 481.61, 1255.81 485.16 C 1254.53 488.71, 1253.77 490.57, 1252.16 493.70 C 1250.55 496.84, 1249.60 498.41, 1247.76 500.83 C 1245.92 503.25, 1244.83 504.22, 1242.97 505.81 C 1241.10 507.41, 1240.22 508.04, 1238.44 508.80 C 1236.66 509.57, 1235.77 509.75, 1234.06 509.65 C 1232.35 509.54, 1231.48 509.30, 1229.88 508.29 C 1228.29 507.28, 1227.50 506.52, 1226.08 504.61 C 1224.65 502.71, 1223.86 501.52, 1222.76 498.78 C 1221.65 496.03, 1221.14 494.33, 1220.55 490.91 C 1219.95 487.48, 1219.79 485.47, 1219.80 481.67 C 1219.81 477.88, 1220.00 475.74, 1220.59 471.93 C 1221.19 468.11, 1221.69 466.05, 1222.76 462.60 C 1223.82 459.15, 1224.66 457.43, 1225.92 454.70 C 1227.18 451.97, 1228.04 450.81, 1229.06 448.97 C 1230.08 447.13, 1230.46 446.45, 1231.03 445.49 C 1231.60 444.53, 1231.66 444.30, 1231.90 444.16 C 1232.15 444.03, 1232.13 444.11, 1232.24 444.81 C 1232.35 445.51, 1232.48 446.09, 1232.46 447.66 C 1232.43 449.22, 1232.38 450.28, 1232.12 452.63 C 1231.86 454.98, 1231.71 456.43, 1231.16 459.41 C 1230.61 462.39, 1230.28 464.16, 1229.37 467.55 C 1228.46 470.94, 1227.86 472.82, 1226.61 476.38 C 1225.36 479.94, 1224.63 481.86, 1223.12 485.34 C 1221.62 488.83, 1220.76 490.67, 1219.07 493.83 C 1217.38 496.99, 1216.39 498.56, 1214.67 501.15 C 1212.96 503.73, 1211.94 504.86, 1210.51 506.77 C 1209.08 508.67, 1208.51 509.52, 1207.52 510.69 C 1206.53 511.87, 1206.24 512.30, 1205.55 512.63 C 1204.87 512.95, 1204.67 512.97, 1204.10 512.32 C 1203.53 511.67, 1203.28 511.12, 1202.70 509.37 C 1202.13 507.63, 1201.82 506.42, 1201.24 503.58 C 1200.66 500.75, 1200.23 498.98, 1199.79 495.20 C 1199.36 491.42, 1199.24 489.18, 1199.07 484.68 C 1198.90 480.19, 1198.89 477.64, 1198.95 472.72 C 1199.01 467.79, 1199.13 465.12, 1199.37 460.06 C 1199.62 455.00, 1199.82 452.32, 1200.18 447.42 C 1200.54 442.51, 1200.75 440.03, 1201.17 435.52 C 1201.59 431.01, 1201.80 428.78, 1202.26 424.85 C 1202.72 420.92, 1203.13 419.02, 1203.48 415.86 C 1203.83 412.69, 1204.05 411.25, 1204.01 409.02 C 1203.96 406.78, 1203.68 405.96, 1203.27 404.69 C 1202.87 403.43, 1202.63 403.08, 1201.97 402.68 C 1201.31 402.27, 1200.63 402.29, 1199.97 402.67" style="stroke: black; fill: black;"/><path d="M 1331.77,398.78 C 1331.07 399.20, 1330.88 399.61, 1330.34 400.97 C 1329.80 402.33, 1329.36 403.21, 1329.08 405.60 C 1328.80 407.99, 1329.02 409.59, 1328.96 412.92 C 1328.89 416.25, 1328.93 418.22, 1328.77 422.26 C 1328.60 426.30, 1328.43 428.57, 1328.13 433.14 C 1327.83 437.70, 1327.61 440.19, 1327.26 445.10 C 1326.92 450.01, 1326.71 452.65, 1326.41 457.69 C 1326.11 462.73, 1325.96 465.39, 1325.77 470.32 C 1325.59 475.24, 1325.53 477.79, 1325.48 482.33 C 1325.44 486.87, 1325.46 489.12, 1325.54 493.02 C 1325.63 496.93, 1325.56 498.78, 1325.92 501.85 C 1326.28 504.92, 1326.58 506.34, 1327.34 508.37 C 1328.11 510.39, 1328.85 511.04, 1329.73 511.99 C 1330.61 512.94, 1331.14 513.05, 1331.75 513.11 C 1332.35 513.17, 1332.62 512.81, 1332.75 512.29 C 1332.88 511.77, 1332.62 511.55, 1332.40 510.51 C 1332.19 509.48, 1332.03 508.97, 1331.67 507.11 C 1331.31 505.26, 1331.04 504.08, 1330.59 501.22 C 1330.14 498.36, 1329.76 496.59, 1329.43 492.81 C 1329.10 489.03, 1329.02 486.79, 1328.94 482.31 C 1328.87 477.84, 1328.90 475.31, 1329.04 470.43 C 1329.18 465.54, 1329.33 462.90, 1329.66 457.89 C 1329.98 452.88, 1330.21 450.26, 1330.65 445.37 C 1331.09 440.49, 1331.36 438.01, 1331.86 433.46 C 1332.36 428.92, 1332.61 426.66, 1333.16 422.64 C 1333.70 418.63, 1334.11 416.69, 1334.58 413.38 C 1335.05 410.07, 1335.43 408.51, 1335.52 406.09 C 1335.61 403.68, 1335.37 402.75, 1335.03 401.31 C 1334.69 399.86, 1334.48 399.39, 1333.83 398.89 C 1333.18 398.38, 1332.47 398.37, 1331.77 398.78" style="stroke: black; fill: black;"/><path d="M 1316.15,457.70 C 1316.53 458.46, 1317.05 458.79, 1318.31 459.33 C 1319.58 459.86, 1320.46 460.11, 1322.47 460.37 C 1324.49 460.64, 1325.83 460.66, 1328.38 460.65 C 1330.93 460.64, 1332.42 460.51, 1335.22 460.32 C 1338.01 460.13, 1339.54 460.01, 1342.34 459.71 C 1345.14 459.42, 1346.58 459.23, 1349.21 458.85 C 1351.84 458.47, 1353.22 458.39, 1355.49 457.82 C 1357.77 457.25, 1359.01 456.81, 1360.60 456.01 C 1362.18 455.21, 1362.96 454.61, 1363.41 453.82 C 1363.86 453.03, 1363.65 452.47, 1362.87 452.05 C 1362.08 451.64, 1361.17 451.71, 1359.48 451.77 C 1357.80 451.82, 1356.65 452.04, 1354.44 452.33 C 1352.24 452.63, 1350.99 452.93, 1348.47 453.22 C 1345.95 453.52, 1344.55 453.65, 1341.85 453.82 C 1339.15 453.98, 1337.66 454.02, 1334.98 454.04 C 1332.29 454.06, 1330.87 453.96, 1328.42 453.92 C 1325.97 453.88, 1324.69 453.74, 1322.75 453.84 C 1320.80 453.94, 1319.96 454.08, 1318.69 454.42 C 1317.42 454.76, 1316.90 454.88, 1316.39 455.53 C 1315.88 456.19, 1315.76 456.94, 1316.15 457.70" style="stroke: black; fill: black;"/><path d="M 1382.06,411.81 C 1381.34 411.99, 1381.04 412.30, 1380.44 413.25 C 1379.85 414.19, 1379.51 414.75, 1379.07 416.55 C 1378.64 418.36, 1378.41 419.56, 1378.27 422.26 C 1378.13 424.97, 1378.42 426.59, 1378.38 430.07 C 1378.35 433.54, 1378.27 435.49, 1378.10 439.63 C 1377.92 443.76, 1377.78 446.04, 1377.50 450.74 C 1377.22 455.43, 1377.03 458.00, 1376.69 463.10 C 1376.36 468.20, 1376.17 470.94, 1375.83 476.25 C 1375.50 481.56, 1375.33 484.37, 1375.02 489.65 C 1374.70 494.92, 1374.55 497.66, 1374.28 502.62 C 1374.00 507.59, 1373.89 510.12, 1373.64 514.48 C 1373.40 518.84, 1373.11 520.98, 1373.04 524.43 C 1372.96 527.87, 1372.99 529.42, 1373.27 531.69 C 1373.55 533.97, 1373.90 534.99, 1374.46 535.80 C 1375.02 536.62, 1375.55 536.60, 1376.08 535.77 C 1376.60 534.94, 1376.85 533.91, 1377.09 531.65 C 1377.32 529.40, 1377.26 527.90, 1377.27 524.48 C 1377.29 521.07, 1377.13 518.94, 1377.17 514.59 C 1377.20 510.25, 1377.27 507.72, 1377.45 502.77 C 1377.64 497.82, 1377.78 495.09, 1378.07 489.82 C 1378.36 484.56, 1378.54 481.75, 1378.92 476.46 C 1379.30 471.16, 1379.52 468.43, 1379.96 463.35 C 1380.39 458.26, 1380.64 455.70, 1381.11 451.02 C 1381.57 446.35, 1381.79 444.07, 1382.28 439.97 C 1382.78 435.86, 1383.05 433.92, 1383.58 430.49 C 1384.12 427.07, 1384.61 425.51, 1384.95 422.86 C 1385.29 420.22, 1385.31 419.04, 1385.29 417.28 C 1385.28 415.52, 1385.10 415.04, 1384.85 414.05 C 1384.61 413.07, 1384.63 412.79, 1384.07 412.35 C 1383.51 411.90, 1382.79 411.64, 1382.06 411.81" style="stroke: black; fill: black;"/><path d="M 1384.59,446.31 C 1384.70 447.02, 1384.87 447.20, 1385.25 447.69 C 1385.64 448.18, 1385.85 448.36, 1386.52 448.77 C 1387.18 449.18, 1387.64 449.23, 1388.58 449.72 C 1389.53 450.20, 1390.14 450.48, 1391.25 451.20 C 1392.35 451.92, 1393.02 452.35, 1394.12 453.32 C 1395.22 454.29, 1395.79 454.81, 1396.74 456.06 C 1397.70 457.31, 1398.15 457.99, 1398.89 459.57 C 1399.63 461.16, 1399.98 462.02, 1400.47 463.98 C 1400.95 465.94, 1401.13 467.01, 1401.33 469.36 C 1401.53 471.70, 1401.50 473.02, 1401.48 475.72 C 1401.45 478.41, 1401.44 479.92, 1401.20 482.82 C 1400.95 485.72, 1400.72 487.29, 1400.26 490.21 C 1399.80 493.12, 1399.37 494.67, 1398.89 497.41 C 1398.41 500.16, 1398.17 501.58, 1397.84 503.92 C 1397.51 506.27, 1397.25 507.35, 1397.23 509.13 C 1397.20 510.91, 1397.18 511.72, 1397.73 512.83 C 1398.29 513.94, 1398.92 514.43, 1400.02 514.68 C 1401.13 514.93, 1402.01 514.83, 1403.26 514.06 C 1404.50 513.28, 1405.10 512.53, 1406.25 510.80 C 1407.40 509.07, 1407.90 507.87, 1409.01 505.42 C 1410.12 502.97, 1410.53 501.40, 1411.80 498.53 C 1413.07 495.66, 1413.81 494.06, 1415.35 491.05 C 1416.89 488.05, 1417.79 486.44, 1419.50 483.50 C 1421.21 480.57, 1422.14 479.04, 1423.92 476.36 C 1425.70 473.69, 1426.72 472.40, 1428.39 470.13 C 1430.06 467.86, 1430.88 466.76, 1432.27 465.02 C 1433.66 463.28, 1434.35 462.53, 1435.34 461.44 C 1436.33 460.36, 1436.74 459.98, 1437.23 459.60 C 1437.72 459.22, 1437.70 459.17, 1437.80 459.55 C 1437.91 459.92, 1437.76 460.26, 1437.75 461.48 C 1437.73 462.71, 1437.72 463.58, 1437.71 465.67 C 1437.71 467.77, 1437.76 469.14, 1437.72 471.96 C 1437.69 474.79, 1437.74 476.50, 1437.55 479.80 C 1437.36 483.09, 1437.13 484.95, 1436.77 488.43 C 1436.42 491.91, 1436.16 493.78, 1435.78 497.20 C 1435.40 500.61, 1435.09 502.36, 1434.87 505.50 C 1434.64 508.64, 1434.43 510.32, 1434.65 512.92 C 1434.87 515.51, 1435.28 516.72, 1435.97 518.49 C 1436.66 520.25, 1437.27 520.89, 1438.11 521.74 C 1438.94 522.58, 1439.52 522.70, 1440.14 522.70 C 1440.75 522.71, 1441.03 522.27, 1441.18 521.76 C 1441.34 521.26, 1441.06 521.06, 1440.90 520.16 C 1440.75 519.26, 1440.64 518.77, 1440.43 517.26 C 1440.22 515.75, 1439.95 514.88, 1439.86 512.59 C 1439.77 510.29, 1439.85 508.78, 1439.99 505.80 C 1440.12 502.82, 1440.22 501.05, 1440.54 497.69 C 1440.86 494.32, 1441.13 492.46, 1441.58 488.99 C 1442.04 485.52, 1442.33 483.67, 1442.81 480.33 C 1443.30 476.99, 1443.74 475.29, 1444.01 472.29 C 1444.28 469.30, 1444.41 467.80, 1444.18 465.35 C 1443.94 462.91, 1443.69 461.76, 1442.86 460.06 C 1442.02 458.36, 1441.33 457.64, 1440.01 456.85 C 1438.68 456.06, 1437.77 455.90, 1436.23 456.11 C 1434.68 456.32, 1433.88 456.77, 1432.30 457.88 C 1430.72 458.99, 1429.96 459.83, 1428.32 461.66 C 1426.68 463.49, 1425.78 464.61, 1424.08 467.02 C 1422.38 469.44, 1421.55 470.91, 1419.81 473.72 C 1418.07 476.54, 1417.15 478.09, 1415.38 481.08 C 1413.60 484.06, 1412.67 485.68, 1410.95 488.65 C 1409.23 491.63, 1408.36 493.21, 1406.76 495.95 C 1405.16 498.69, 1404.24 500.04, 1402.94 502.37 C 1401.65 504.69, 1401.01 505.80, 1400.27 507.58 C 1399.53 509.36, 1399.31 510.17, 1399.25 511.26 C 1399.19 512.35, 1399.61 512.78, 1399.99 513.04 C 1400.37 513.30, 1400.73 513.22, 1401.15 512.57 C 1401.58 511.91, 1401.70 511.31, 1402.11 509.77 C 1402.52 508.23, 1402.72 507.14, 1403.21 504.87 C 1403.69 502.60, 1404.04 501.18, 1404.53 498.41 C 1405.02 495.64, 1405.23 494.04, 1405.67 491.03 C 1406.12 488.03, 1406.40 486.42, 1406.75 483.38 C 1407.11 480.34, 1407.35 478.75, 1407.43 475.83 C 1407.52 472.92, 1407.46 471.46, 1407.18 468.80 C 1406.90 466.13, 1406.68 464.86, 1406.05 462.53 C 1405.42 460.19, 1404.97 459.11, 1404.03 457.14 C 1403.09 455.17, 1402.52 454.30, 1401.37 452.68 C 1400.21 451.05, 1399.56 450.33, 1398.27 449.01 C 1396.99 447.68, 1396.27 447.09, 1394.94 446.06 C 1393.61 445.03, 1392.91 444.52, 1391.63 443.85 C 1390.35 443.18, 1389.65 442.89, 1388.54 442.70 C 1387.42 442.52, 1386.83 442.63, 1386.07 442.92 C 1385.30 443.22, 1385.01 443.50, 1384.72 444.18 C 1384.43 444.86, 1384.49 445.61, 1384.59 446.31" style="stroke: black; fill: black;"/><path d="M 1481.07,408.50 C 1481.72 408.01, 1481.66 407.44, 1482.03 406.49 C 1482.40 405.55, 1482.50 405.01, 1482.92 403.78 C 1483.34 402.54, 1483.40 401.70, 1484.13 400.30 C 1484.86 398.90, 1485.33 398.16, 1486.59 396.78 C 1487.85 395.41, 1488.69 394.64, 1490.44 393.41 C 1492.19 392.18, 1493.24 391.55, 1495.34 390.63 C 1497.44 389.72, 1498.66 389.32, 1500.93 388.83 C 1503.21 388.34, 1504.49 388.18, 1506.71 388.19 C 1508.93 388.20, 1510.09 388.32, 1512.02 388.87 C 1513.94 389.41, 1514.90 389.85, 1516.34 390.93 C 1517.79 392.01, 1518.44 392.65, 1519.26 394.27 C 1520.07 395.89, 1520.27 396.80, 1520.42 399.03 C 1520.57 401.26, 1520.58 402.56, 1520.00 405.41 C 1519.43 408.26, 1518.94 409.91, 1517.54 413.26 C 1516.15 416.61, 1515.11 418.51, 1513.04 422.15 C 1510.96 425.79, 1509.61 427.76, 1507.19 431.46 C 1504.77 435.16, 1503.33 437.10, 1500.91 440.67 C 1498.50 444.24, 1497.20 446.03, 1495.13 449.32 C 1493.07 452.61, 1491.98 454.13, 1490.58 457.12 C 1489.19 460.10, 1488.64 461.55, 1488.17 464.23 C 1487.70 466.91, 1487.74 468.19, 1488.25 470.49 C 1488.75 472.80, 1489.29 473.91, 1490.71 475.74 C 1492.13 477.57, 1493.17 478.38, 1495.34 479.64 C 1497.51 480.89, 1498.89 481.31, 1501.57 482.00 C 1504.25 482.69, 1505.82 482.87, 1508.74 483.07 C 1511.67 483.27, 1513.50 483.26, 1516.20 482.99 C 1518.90 482.73, 1520.29 482.38, 1522.25 481.75 C 1524.21 481.11, 1525.31 480.59, 1526.01 479.82 C 1526.70 479.06, 1526.57 478.45, 1525.72 477.92 C 1524.87 477.39, 1523.70 477.37, 1521.75 477.16 C 1519.80 476.95, 1518.50 476.93, 1515.97 476.86 C 1513.44 476.79, 1511.74 476.95, 1509.12 476.81 C 1506.50 476.67, 1505.13 476.59, 1502.87 476.18 C 1500.60 475.77, 1499.50 475.46, 1497.78 474.76 C 1496.06 474.06, 1495.31 473.71, 1494.27 472.68 C 1493.22 471.64, 1492.85 471.10, 1492.56 469.59 C 1492.27 468.07, 1492.36 467.23, 1492.80 465.11 C 1493.25 462.99, 1493.61 461.72, 1494.77 458.98 C 1495.93 456.24, 1496.74 454.64, 1498.60 451.40 C 1500.45 448.16, 1501.71 446.34, 1504.07 442.77 C 1506.42 439.20, 1507.86 437.27, 1510.35 433.55 C 1512.84 429.84, 1514.25 427.89, 1516.51 424.21 C 1518.77 420.52, 1519.95 418.65, 1521.66 415.12 C 1523.37 411.60, 1524.22 409.88, 1525.06 406.57 C 1525.90 403.27, 1526.11 401.54, 1525.86 398.60 C 1525.60 395.66, 1525.05 394.24, 1523.79 391.89 C 1522.52 389.54, 1521.55 388.49, 1519.52 386.86 C 1517.49 385.23, 1516.16 384.59, 1513.63 383.73 C 1511.09 382.88, 1509.61 382.70, 1506.85 382.59 C 1504.08 382.48, 1502.55 382.64, 1499.79 383.16 C 1497.02 383.69, 1495.57 384.15, 1493.02 385.23 C 1490.47 386.31, 1489.21 387.06, 1487.06 388.55 C 1484.90 390.04, 1483.92 390.94, 1482.24 392.69 C 1480.56 394.43, 1479.74 395.36, 1478.64 397.28 C 1477.55 399.20, 1477.13 400.42, 1476.79 402.27 C 1476.45 404.12, 1476.56 405.21, 1476.95 406.55 C 1477.35 407.88, 1477.94 408.55, 1478.76 408.95 C 1479.59 409.34, 1480.41 408.99, 1481.07 408.50" style="stroke: black; fill: black;"/><path d="M 1494.25,500.37 C 1493.42 500.56, 1493.04 500.80, 1492.68 501.20 C 1492.31 501.59, 1492.31 501.82, 1492.41 502.36 C 1492.51 502.90, 1492.75 503.38, 1493.18 503.90 C 1493.60 504.41, 1494.07 504.70, 1494.53 504.93 C 1494.99 505.15, 1495.17 505.10, 1495.49 505.01 C 1495.80 504.93, 1495.83 504.87, 1496.13 504.48 C 1496.42 504.09, 1496.73 503.51, 1496.94 503.07 C 1497.16 502.64, 1497.07 502.53, 1497.20 502.32 C 1497.32 502.10, 1497.35 502.05, 1497.56 502.01 C 1497.77 501.97, 1497.99 502.13, 1498.23 502.12 C 1498.47 502.10, 1498.70 502.15, 1498.76 501.94 C 1498.81 501.73, 1498.87 501.41, 1498.49 501.08 C 1498.10 500.74, 1497.69 500.39, 1496.84 500.25 C 1495.99 500.11, 1495.08 500.18, 1494.25 500.37" style="stroke: black; fill: black;"/></svg>